<svg xmlns="http://www.w3.org/2000/svg" height="24" viewBox="0 -960 960 960" width="24"><path d="M425-265h110v-255H425v255Zm55-315q25.5 0 42.75-17.25T540-640q0-25.5-17.25-42.75T480-700q-25.5 0-42.75 17.25T420-640q0 25.5 17.25 42.75T480-580Zm0 534q-91 0-169.987-34.084-78.988-34.083-137.417-92.512T80.084-310.013Q46-389 46-480t34.084-169.987q34.083-78.988 92.512-137.417t137.417-92.512Q389-914 480-914t169.987 34.084q78.988 34.083 137.417 92.512t92.512 137.417Q914-571 914-480t-34.084 169.987q-34.083 78.988-92.512 137.417T649.987-80.084Q571-46 480-46Z"/></svg>